# xmcd
#
# Track frame offsets:
#	182
#	14750
#	34952
#	63527
#	82102
#	105250
#	121752
#	140425
#	160312
#	175762
#	201582
#	217245
#	243200
#	258865
#	271525
#	286775
#
# Disc length: 3993 seconds
#
# Revision: 2
# Processed by: cddbd v1.5.2PL0 Copyright (c) Steve Scherf et al.
# Submitted via: EasyCDDAExtractor 2010.6.0.0
#
DISCID=e50f9710
DTITLE=양희은 - 아침이슬
DYEAR=1988
DGENRE=Pop-Folk
TTITLE0=아침이슬
TTITLE1=거치른 들판의 푸르른 솔잎처럼
TTITLE2=우리가 오를 봉우리는
TTITLE3=오! 주여 이제는 그곳에
TTITLE4=천릿길
TTITLE5=그 사이
TTITLE6=서울로 가는 길
TTITLE7=사랑이야
TTITLE8=가난한 마음
TTITLE9=바다
TTITLE10=찔레꽃 피면
TTITLE11=백구
TTITLE12=일곱송이 수선화
TTITLE13=세노야 세노야
TTITLE14=사랑의 기쁨
TTITLE15=잘가오
EXTD=
EXTT0=
EXTT1=
EXTT2=
EXTT3=
EXTT4=
EXTT5=
EXTT6=
EXTT7=
EXTT8=
EXTT9=
EXTT10=
EXTT11=
EXTT12=
EXTT13=
EXTT14=
EXTT15=
PLAYORDER=
